<svg width="1600" height="900" viewBox="0 0 1600 900" fill="none" xmlns="http://www.w3.org/2000/svg">
  <defs>
    <linearGradient id="bg" x1="0" y1="0" x2="1600" y2="900" gradientUnits="userSpaceOnUse">
      <stop stop-color="#E0F2FE"/>
      <stop offset="0.45" stop-color="#FFFFFF"/>
      <stop offset="1" stop-color="#DCFCE7"/>
    </linearGradient>
    <linearGradient id="sun" x1="0" y1="0" x2="1" y2="1">
      <stop stop-color="#FBBF24"/>
      <stop offset="1" stop-color="#F97316"/>
    </linearGradient>
  </defs>

  <rect width="1600" height="900" fill="url(#bg)"/>

  <circle cx="1260" cy="210" r="86" fill="url(#sun)" opacity="0.95"/>

  <path d="M0 620C210 540 360 560 560 620C780 686 960 698 1180 640C1340 596 1460 556 1600 520V900H0V620Z" fill="#0EA5E9" opacity="0.12"/>
  <path d="M0 690C230 610 390 630 600 690C820 754 1000 770 1220 710C1380 666 1500 626 1600 590V900H0V690Z" fill="#10B981" opacity="0.14"/>

  <g opacity="0.85">
    <path d="M760 362C822 330 902 332 962 368C1018 402 1070 470 1092 548C1097 566 1084 582 1066 582H520C502 582 489 566 494 548C518 464 584 394 652 366C684 352 724 350 760 362Z" fill="#0F172A" opacity="0.08"/>
    <path d="M625 540C650 470 706 420 770 404C814 393 862 402 902 430C950 463 986 515 1002 566H598C604 556 611 548 625 540Z" fill="#0F172A" opacity="0.10"/>
  </g>

  <g opacity="0.9">
    <path d="M710 420L930 500" stroke="#0284C7" stroke-width="18" stroke-linecap="round"/>
    <path d="M704 463L980 512" stroke="#0EA5E9" stroke-width="14" stroke-linecap="round" opacity="0.85"/>
    <path d="M708 508L952 550" stroke="#10B981" stroke-width="14" stroke-linecap="round" opacity="0.75"/>
    <path d="M686 452L736 410L756 478L686 452Z" fill="#0284C7" opacity="0.85"/>
    <path d="M958 520L1008 478L1028 546L958 520Z" fill="#0EA5E9" opacity="0.75"/>
  </g>
</svg>

